<?xml version="1.0" encoding="UTF-8"?>
<svg id="Layer_2" data-name="Layer 2" xmlns="http://www.w3.org/2000/svg" viewBox="0 0 426.12 245.95">
  <defs>
    <style>
      .cls-1 {
        fill: #808285;
        stroke: #6d6e71;
        stroke-miterlimit: 10;
        stroke-width: 6px;
      }

      .cls-2 {
        fill: #58595b;
      }

      .cls-2, .cls-3, .cls-4, .cls-5 {
        stroke-width: 0px;
      }

      .cls-3 {
        fill: #fff;
      }

      .cls-4 {
        fill: #f7941d;
      }

      .cls-5 {
        fill: #fbb040;
      }

      #egg{
        opacity: 0;
        transform: translateX(-5px);
        transition: opacity 0.5s ease, transform 0.5s ease;
      }

      #Layer_2:hover #egg {
        opacity: 1;
        transform: translateX(0);
      }

      <script>
      // select the path element directly
      let thePath = document.querySelector('#Layer_2');

      // functions always go in the middle
      function logMyId() {        
        console.log("Pan And Egg");
      }

      // event handling at the bottom
      document.addEventListener('click', logMyId);
    </script>


    </style>
  </defs>
  <g id="Layer_1-2" data-name="Layer 1">
    <g id="pan">
      <path class="cls-2" d="m289.07,132.54l-270.3,10.6c-10.36.41-18.76-7.66-18.76-18.03v-4.29c0-10.36,8.4-18.44,18.76-18.04l270.3,10.47c10.36.4,18.76,4.31,18.76,8.72v1.83c0,4.42-8.4,8.32-18.76,8.73Z"/>
      <circle class="cls-1" cx="303.15" cy="122.97" r="119.97"/>
      <ellipse class="cls-3" cx="24.05" cy="122.97" rx="9.92" ry="6.64"/>
    </g>
    <g id="egg">
      <path class="cls-3" d="m266.56,58.06s16.78,37.11-28.94,50.18c-45.72,13.08,0,44.88,0,44.88,0,0,53.69,4.95,55.37,24.03,1.68,19.08,46.14,8.81,45.3-5.14s68.37-52.47,9.65-62.01c-58.72-9.54-33.37-114.19-81.38-51.95Z"/>
      <circle class="cls-5" cx="303.15" cy="129.7" r="23.43"/>
      <path class="cls-4" d="m321.66,120.15s2.56,15.52-6.42,25.51c0,0,7.41-5.95,8.16-10.84.75-4.89-1.74-14.67-1.74-14.67Z"/>
  </g>
    </g>
    
</svg>