<?xml version="1.0" encoding="UTF-8"?>
<svg id="Layer_2" data-name="Layer 2" xmlns="http://www.w3.org/2000/svg" viewBox="0 0 491.97 468.94">
  <defs>
    <style>
      .cls-1 {
        fill: #ed1c24;
      }

      .cls-1, .cls-2, .cls-3, .cls-4, .cls-5 {
        stroke-width: 0px;
      }

      .cls-2 {
        fill: #f15a29;
      }

      .cls-3 {
        fill: #fff;
      }

      .cls-4 {
        fill: #f7941d;
      }

      .cls-5 {
        fill: #fbb040;
      }

      .cls-1:hover {
        fill: #258d19;
      }

      .cls-2:hover {
        fill: #4ea93b;
      }

      .cls-3:hover {
        fill: #fff;
      }

      .cls-4:hover {
        fill: #71c55b;
      }

      .cls-5:hover {
        fill: #92e27a;
      }


    </style>
    <script>
      // select the path element directly
      let thePath = document.querySelector('#Layer_2');

      // functions always go in the middle
      function logMyId() {        
        console.log("Star");
      }

      // event handling at the bottom
      document.addEventListener('click', logMyId);
    </script>

  </defs>
  <g id="Layer_1-2" data-name="Layer 1">
    <path class="cls-1" d="m232.71,11.1c7.3-14.8,19.25-14.8,26.55,0l53.96,109.33c7.3,14.8,26.64,28.84,42.97,31.22l120.66,17.53c16.33,2.37,20.02,13.74,8.21,25.25l-87.31,85.11c-11.82,11.52-19.2,34.25-16.41,50.51l20.61,120.17c2.79,16.26-6.88,23.29-21.48,15.61l-107.92-56.74c-14.6-7.68-38.5-7.68-53.11,0l-107.92,56.74c-14.6,7.68-24.27.65-21.48-15.61l20.61-120.17c2.79-16.26-4.6-38.99-16.41-50.51L6.92,194.44c-11.82-11.52-8.12-22.88,8.21-25.25l120.66-17.53c16.33-2.37,35.66-16.42,42.97-31.22L232.71,11.1Z"/>
    <path class="cls-2" d="m232.71,77.57c7.3-14.8,19.25-14.8,26.55,0l34.52,69.94c7.3,14.8,26.64,28.84,42.97,31.22l77.19,11.22c16.33,2.37,20.02,13.74,8.21,25.25l-55.85,54.44c-11.82,11.52-19.2,34.25-16.41,50.51l13.18,76.87c2.79,16.26-6.88,23.29-21.48,15.61l-69.04-36.29c-14.6-7.68-38.5-7.68-53.11,0l-69.04,36.29c-14.6,7.68-24.27.65-21.48-15.61l13.18-76.87c2.79-16.26-4.6-38.99-16.41-50.51l-55.85-54.44c-11.82-11.52-8.12-22.88,8.21-25.25l77.19-11.22c16.33-2.37,35.66-16.42,42.97-31.22l34.52-69.94Z"/>
    <path class="cls-4" d="m232.71,110.69c7.3-14.8,19.25-14.8,26.55,0l23.76,48.13c7.3,14.8,26.64,28.84,42.97,31.22l53.12,7.72c16.33,2.37,20.02,13.74,8.21,25.25l-38.44,37.47c-11.82,11.52-19.2,34.25-16.41,50.51l9.07,52.9c2.79,16.26-6.88,23.29-21.48,15.61l-47.51-24.98c-14.6-7.68-38.5-7.68-53.11,0l-47.51,24.98c-14.6,7.68-24.27.65-21.48-15.61l9.07-52.9c2.79-16.26-4.6-38.99-16.41-50.51l-38.44-37.47c-11.82-11.52-8.12-22.88,8.21-25.25l53.12-7.72c16.33-2.37,35.66-16.42,42.97-31.22l23.76-48.13Z"/>
    <path class="cls-5" d="m232.71,153.35c7.3-14.8,19.25-14.8,26.55,0l9.9,20.05c7.3,14.8,26.64,28.84,42.97,31.22l22.13,3.22c16.33,2.37,20.02,13.74,8.21,25.25l-16.01,15.61c-11.82,11.52-19.2,34.25-16.41,50.51l3.78,22.04c2.79,16.26-6.88,23.29-21.48,15.61l-19.79-10.4c-14.6-7.68-38.5-7.68-53.11,0l-19.79,10.4c-14.6,7.68-24.27.65-21.48-15.61l3.78-22.04c2.79-16.26-4.6-38.99-16.41-50.51l-16.01-15.61c-11.82-11.52-8.12-22.88,8.21-25.25l22.13-3.22c16.33-2.37,35.66-16.42,42.97-31.22l9.9-20.05Z"/>
    <path class="cls-3" d="m234.05,189.34c6.57-13.3,17.31-13.3,23.87,0,6.57,13.3,23.95,25.93,38.63,28.07,14.68,2.13,18,12.35,7.38,22.71-10.62,10.36-17.26,30.79-14.76,45.41s-6.18,20.94-19.31,14.03-34.62-6.9-47.75,0c-13.13,6.9-21.82.59-19.31-14.03s-4.13-35.06-14.76-45.41-7.3-20.57,7.38-22.71,32.06-14.76,38.63-28.07Z"/>
  </g>
</svg>